<svg width="36" height="54" viewBox="0 0 36 54" fill="none" xmlns="http://www.w3.org/2000/svg">
<path d="M17.7998 53.6667C15.9332 53.6667 14.1221 53.4667 12.3665 53.0667C10.6109 52.6667 9.02206 52.1556 7.59984 51.5334C5.55539 50.6445 3.88873 49.5667 2.59984 48.3C1.31095 47.0334 0.666504 45.6223 0.666504 44.0667V28.6667C0.666504 27.2889 1.18873 26.0223 2.23317 24.8667C3.27762 23.7111 4.62206 22.6889 6.2665 21.8C7.95539 20.9112 9.81095 20.2223 11.8332 19.7334C13.8554 19.2445 15.9109 19 17.9998 19C20.0887 19 22.1443 19.2445 24.1665 19.7334C26.1887 20.2223 28.0443 20.9112 29.7332 21.8C31.4221 22.6889 32.7776 23.7111 33.7998 24.8667C34.8221 26.0223 35.3332 27.2889 35.3332 28.6667V44.0667C35.3332 44.8223 35.1665 45.5556 34.8332 46.2667C34.4998 46.9778 34.0221 47.6445 33.3998 48.2667C32.7776 48.8889 32.0554 49.4778 31.2332 50.0334C30.411 50.5889 29.4887 51.0889 28.4665 51.5334C28.511 51.3111 28.5776 50.6889 28.6665 49.6667C28.6665 47.0889 27.7554 44.8889 25.9332 43.0667C24.111 41.2445 21.9109 40.3334 19.3332 40.3334C17.4221 40.3334 15.7332 40.8445 14.2665 41.8667C12.7998 42.8889 11.6887 44.2 10.9332 45.8C12.3554 46.1556 13.6554 46.4 14.8332 46.5334C16.0109 46.6667 17.0443 46.7334 17.9332 46.7334C18.6887 46.7334 19.2998 46.7111 19.7665 46.6667C20.2332 46.6223 20.5332 46.6 20.6665 46.6V53.5334C20.1776 53.5778 19.6998 53.6112 19.2332 53.6334C18.7665 53.6556 18.2887 53.6667 17.7998 53.6667ZM25.9998 39C27.4665 39 28.7221 38.4778 29.7665 37.4334C30.811 36.3889 31.3332 35.1334 31.3332 33.6667C31.3332 32.2 30.811 30.9445 29.7665 29.9C28.7221 28.8556 27.4665 28.3334 25.9998 28.3334C24.5332 28.3334 23.2776 28.8556 22.2332 29.9C21.1887 30.9445 20.6665 32.2 20.6665 33.6667C20.6665 35.1334 21.1887 36.3889 22.2332 37.4334C23.2776 38.4778 24.5332 39 25.9998 39ZM17.9998 16.3334C20.2221 16.3334 22.1109 15.5667 23.6665 14.0334C25.2221 12.5 25.9998 10.6 25.9998 8.33337C25.9998 6.11115 25.2221 4.22226 23.6665 2.66671C22.1109 1.11115 20.2221 0.333374 17.9998 0.333374C15.7332 0.333374 13.8332 1.11115 12.2998 2.66671C10.7665 4.22226 9.99984 6.11115 9.99984 8.33337C9.99984 10.6 10.7665 12.5 12.2998 14.0334C13.8332 15.5667 15.7332 16.3334 17.9998 16.3334Z" fill="white"/>
</svg>
