<svg width="16" height="16" viewBox="0 0 16 16" fill="none" xmlns="http://www.w3.org/2000/svg">
<mask id="mask0_5_5534" style="mask-type:alpha" maskUnits="userSpaceOnUse" x="0" y="0" width="16" height="16">
<rect width="16" height="16" fill="#D9D9D9"/>
</mask>
<g mask="url(#mask0_5_5534)">
<path d="M2.66667 14.6667C2.47778 14.6667 2.31944 14.6028 2.19167 14.475C2.06389 14.3472 2 14.1889 2 14V11.3333C2 10.9667 2.13056 10.6528 2.39167 10.3917C2.65278 10.1306 2.96667 10 3.33333 10H12.6667C13.0333 10 13.3472 10.1306 13.6083 10.3917C13.8694 10.6528 14 10.9667 14 11.3333V14C14 14.1889 13.9361 14.3472 13.8083 14.475C13.6806 14.6028 13.5222 14.6667 13.3333 14.6667H2.66667ZM3.33333 8.66668V6.66668C3.33333 6.30001 3.46389 5.98612 3.725 5.72501C3.98611 5.4639 4.3 5.33334 4.66667 5.33334H7.33333V4.36668C7.13333 4.23334 6.97222 4.07223 6.85 3.88334C6.72778 3.69445 6.66667 3.46668 6.66667 3.20001C6.66667 3.03334 6.7 2.86945 6.76667 2.70834C6.83333 2.54723 6.93333 2.40001 7.06667 2.26668L8 1.33334L8.93333 2.26668C9.06667 2.40001 9.16667 2.54723 9.23333 2.70834C9.3 2.86945 9.33333 3.03334 9.33333 3.20001C9.33333 3.46668 9.27222 3.69445 9.15 3.88334C9.02778 4.07223 8.86667 4.23334 8.66667 4.36668V5.33334H11.3333C11.7 5.33334 12.0139 5.4639 12.275 5.72501C12.5361 5.98612 12.6667 6.30001 12.6667 6.66668V8.66668H3.33333Z" fill="#252525"/>
</g>
</svg>
