<svg width="100" height="100" viewBox="0 0 100 100" fill="none" xmlns="http://www.w3.org/2000/svg">
<path d="M43.0005 72.999L78.2505 37.749L71.2505 30.749L43.0005 58.999L28.7505 44.749L21.7505 51.749L43.0005 72.999ZM50.0005 99.999C43.0838 99.999 36.5838 98.6865 30.5005 96.0615C24.4172 93.4365 19.1255 89.874 14.6255 85.374C10.1255 80.874 6.56299 75.5824 3.93799 69.499C1.31299 63.4157 0.000488281 56.9157 0.000488281 49.999C0.000488281 43.0824 1.31299 36.5824 3.93799 30.499C6.56299 24.4157 10.1255 19.124 14.6255 14.624C19.1255 10.124 24.4172 6.56152 30.5005 3.93652C36.5838 1.31152 43.0838 -0.000976562 50.0005 -0.000976562C56.9172 -0.000976562 63.4172 1.31152 69.5005 3.93652C75.5838 6.56152 80.8755 10.124 85.3755 14.624C89.8755 19.124 93.438 24.4157 96.063 30.499C98.688 36.5824 100 43.0824 100 49.999C100 56.9157 98.688 63.4157 96.063 69.499C93.438 75.5824 89.8755 80.874 85.3755 85.374C80.8755 89.874 75.5838 93.4365 69.5005 96.0615C63.4172 98.6865 56.9172 99.999 50.0005 99.999Z" fill="#00A724"/>
</svg>
