<svg width="19" height="19" viewBox="0 0 19 19" fill="none" xmlns="http://www.w3.org/2000/svg">
<path d="M2.17521 18C1.82521 18.0834 1.52105 17.9959 1.26271 17.7375C1.00438 17.4792 0.916881 17.175 1.00021 16.825L2.00021 12.05L6.95021 17L2.17521 18ZM6.95021 17L2.00021 12.05L13.4502 0.600024C13.8335 0.216691 14.3085 0.0250244 14.8752 0.0250244C15.4419 0.0250244 15.9169 0.216691 16.3002 0.600024L18.4002 2.70002C18.7835 3.08336 18.9752 3.55836 18.9752 4.12502C18.9752 4.69169 18.7835 5.16669 18.4002 5.55002L6.95021 17ZM14.8752 2.00002L4.52521 12.35L6.65021 14.475L17.0002 4.12502L14.8752 2.00002Z" fill="#04163A"/>
</svg>
