<svg width="76" height="76" viewBox="0 0 76 76" fill="none" xmlns="http://www.w3.org/2000/svg">
<g clip-path="url(#clip0_158_2226)">
<path d="M38 71.25C29.1816 71.25 20.7243 67.7469 14.4887 61.5113C8.25311 55.2757 4.75 46.8184 4.75 38C4.75 29.1816 8.25311 20.7243 14.4887 14.4887C20.7243 8.25311 29.1816 4.75 38 4.75C46.8184 4.75 55.2757 8.25311 61.5113 14.4887C67.7469 20.7243 71.25 29.1816 71.25 38C71.25 46.8184 67.7469 55.2757 61.5113 61.5113C55.2757 67.7469 46.8184 71.25 38 71.25ZM38 76C48.0782 76 57.7437 71.9964 64.8701 64.8701C71.9964 57.7437 76 48.0782 76 38C76 27.9218 71.9964 18.2563 64.8701 11.1299C57.7437 4.00356 48.0782 0 38 0C27.9218 0 18.2563 4.00356 11.1299 11.1299C4.00356 18.2563 0 27.9218 0 38C0 48.0782 4.00356 57.7437 11.1299 64.8701C18.2563 71.9964 27.9218 76 38 76Z" fill="#04163A"/>
<path d="M33.2598 52.2498C33.2598 51.626 33.3826 51.0084 33.6213 50.4321C33.86 49.8558 34.2099 49.3321 34.651 48.8911C35.0921 48.45 35.6157 48.1001 36.192 47.8614C36.7683 47.6227 37.386 47.4998 38.0098 47.4998C38.6335 47.4998 39.2512 47.6227 39.8275 47.8614C40.4038 48.1001 40.9274 48.45 41.3685 48.8911C41.8096 49.3321 42.1595 49.8558 42.3982 50.4321C42.6369 51.0084 42.7598 51.626 42.7598 52.2498C42.7598 53.5096 42.2593 54.7178 41.3685 55.6086C40.4777 56.4994 39.2695 56.9998 38.0098 56.9998C36.75 56.9998 35.5418 56.4994 34.651 55.6086C33.7602 54.7178 33.2598 53.5096 33.2598 52.2498ZM33.7253 23.7261C33.662 23.1268 33.7255 22.521 33.9115 21.9478C34.0975 21.3747 34.4019 20.847 34.805 20.3991C35.2081 19.9512 35.7009 19.5931 36.2514 19.3479C36.8018 19.1028 37.3977 18.9761 38.0003 18.9761C38.6029 18.9761 39.1987 19.1028 39.7492 19.3479C40.2996 19.5931 40.7924 19.9512 41.1955 20.3991C41.5986 20.847 41.903 21.3747 42.0891 21.9478C42.2751 22.521 42.3385 23.1268 42.2753 23.7261L40.6128 40.3843C40.5569 41.0387 40.2575 41.6484 39.7737 42.0926C39.2899 42.5368 38.6571 42.7833 38.0003 42.7833C37.3435 42.7833 36.7106 42.5368 36.2268 42.0926C35.7431 41.6484 35.4436 41.0387 35.3878 40.3843L33.7253 23.7261Z" fill="#04163A"/>
</g>
<defs>
<clipPath id="clip0_158_2226">
<rect width="76" height="76" fill="white"/>
</clipPath>
</defs>
</svg>
