<svg width="34" height="34" viewBox="0 0 34 34" fill="none" xmlns="http://www.w3.org/2000/svg">
<path d="M31.4176 12.625L29.0843 10.2916L30.3343 8.99996L25.001 3.66662L23.7093 4.91662L21.3343 2.54162L22.5843 1.24996C23.2232 0.611066 24.0149 0.298566 24.9593 0.312455C25.9038 0.326344 26.6954 0.652733 27.3343 1.29162L32.7093 6.66662C33.3482 7.30551 33.6676 8.09023 33.6676 9.02079C33.6676 9.95134 33.3482 10.7361 32.7093 11.375L31.4176 12.625ZM11.4176 32.6666C10.7788 33.3055 9.99403 33.625 9.06348 33.625C8.13292 33.625 7.3482 33.3055 6.70931 32.6666L1.33431 27.2916C0.695421 26.6527 0.375977 25.868 0.375977 24.9375C0.375977 24.0069 0.695421 23.2222 1.33431 22.5833L2.58431 21.3333L4.95931 23.7083L3.66764 24.9583L9.04264 30.3333L10.2926 29.0416L12.6676 31.4166L11.4176 32.6666ZM27.9593 18.6666L30.3343 16.2916L17.7093 3.66662L15.3343 6.04162L27.9593 18.6666ZM16.2926 30.3333L18.6676 27.9166L6.08431 15.3333L3.66764 17.7083L16.2926 30.3333ZM16.0426 20.5833L20.626 16.0416L17.9593 13.375L13.4176 17.9583L16.0426 20.5833ZM18.6676 32.6666C18.0288 33.3055 17.2371 33.625 16.2926 33.625C15.3482 33.625 14.5565 33.3055 13.9176 32.6666L1.33431 20.0833C0.695421 19.4444 0.375977 18.6527 0.375977 17.7083C0.375977 16.7638 0.695421 15.9722 1.33431 15.3333L3.70931 12.9583C4.3482 12.3194 5.13292 12 6.06348 12C6.99403 12 7.77876 12.3194 8.41764 12.9583L11.0426 15.5833L15.626 11L13.001 8.41662C12.3621 7.77773 12.0426 6.98607 12.0426 6.04162C12.0426 5.09718 12.3621 4.30551 13.001 3.66662L15.376 1.29162C16.0149 0.652733 16.7996 0.333288 17.7301 0.333288C18.6607 0.333288 19.4454 0.652733 20.0843 1.29162L32.7093 13.9166C33.3482 14.5555 33.6676 15.3402 33.6676 16.2708C33.6676 17.2013 33.3482 17.9861 32.7093 18.625L30.3343 21C29.6954 21.6388 28.9038 21.9583 27.9593 21.9583C27.0149 21.9583 26.2232 21.6388 25.5843 21L23.001 18.375L18.4176 22.9583L21.0426 25.5833C21.6815 26.2222 22.001 27.0069 22.001 27.9375C22.001 28.868 21.6815 29.6527 21.0426 30.2916L18.6676 32.6666Z" fill="white"/>
</svg>
