<svg width="15" height="16" viewBox="0 0 15 16" fill="none" xmlns="http://www.w3.org/2000/svg">
<path d="M1.66667 15.5V7.16667C1.20833 7.16667 0.815972 7.00347 0.489583 6.67708C0.163194 6.35069 0 5.95833 0 5.5V1.08333C0 0.916667 0.0555556 0.777778 0.166667 0.666667C0.277778 0.555556 0.416667 0.5 0.583333 0.5C0.75 0.5 0.888889 0.555556 1 0.666667C1.11111 0.777778 1.16667 0.916667 1.16667 1.08333V3.83333H1.91667V1.08333C1.91667 0.916667 1.97222 0.777778 2.08333 0.666667C2.19444 0.555556 2.33333 0.5 2.5 0.5C2.66667 0.5 2.80556 0.555556 2.91667 0.666667C3.02778 0.777778 3.08333 0.916667 3.08333 1.08333V3.83333H3.83333V1.08333C3.83333 0.916667 3.88889 0.777778 4 0.666667C4.11111 0.555556 4.25 0.5 4.41667 0.5C4.58333 0.5 4.72222 0.555556 4.83333 0.666667C4.94444 0.777778 5 0.916667 5 1.08333V5.5C5 5.95833 4.83681 6.35069 4.51042 6.67708C4.18403 7.00347 3.79167 7.16667 3.33333 7.16667V15.5H1.66667ZM7.5 15.5V7.08333C6.91667 6.80556 6.49306 6.37153 6.22917 5.78125C5.96528 5.19097 5.83333 4.56944 5.83333 3.91667C5.83333 3.04167 6.05208 2.25347 6.48958 1.55208C6.92708 0.850694 7.54167 0.5 8.33333 0.5C9.125 0.5 9.73958 0.850694 10.1771 1.55208C10.6146 2.25347 10.8333 3.04167 10.8333 3.91667C10.8333 4.56944 10.7014 5.19097 10.4375 5.78125C10.1736 6.37153 9.75 6.80556 9.16667 7.08333V15.5H7.5ZM11.6667 15.5V0.5C12.5833 0.5 13.3681 0.826389 14.0208 1.47917C14.6736 2.13194 15 2.91667 15 3.83333V8.83333H13.3333V15.5H11.6667Z" fill="#252525"/>
</svg>
