<svg width="16" height="16" viewBox="0 0 16 16" fill="none" xmlns="http://www.w3.org/2000/svg">
<g clip-path="url(#clip0_5_5562)">
<path d="M14.347 10.3461C16.2954 9.77364 16.4726 8.6033 15.1355 7.98116C14.9209 7.88127 13.3729 7.15282 13.1607 7.07916L13.0997 7.05799C12.9416 7.00305 12.778 7.00021 12.6276 7.04035C12.5345 6.91558 12.4044 6.81647 12.2463 6.76155L12.1854 6.74033C12.0273 6.68544 11.8637 6.68261 11.7133 6.72274C11.6202 6.59804 11.4901 6.49886 11.332 6.44388L11.271 6.42272C11.113 6.36784 10.9494 6.36493 10.799 6.40514C10.7059 6.28037 10.5758 6.18126 10.4177 6.12628L10.3567 6.10511C10.1986 6.05023 10.035 6.04733 9.88467 6.08747C9.79155 5.96277 9.66143 5.86359 9.50334 5.80861L9.44239 5.78751C9.25981 5.72405 9.06994 5.73018 8.90149 5.79167C8.89562 5.78796 8.88926 5.78412 8.88394 5.78051C8.40566 5.45806 7.7496 4.93674 7.30498 4.57761C5.90689 3.44838 5.44506 4.61323 4.92855 5.17391C4.82011 5.29168 4.81582 5.42932 4.90003 5.5626C4.96414 5.66407 5.04012 5.75802 5.15007 5.9093C4.7621 5.94951 4.41759 5.98416 4.07333 6.02123C3.65561 6.06611 3.30329 5.93421 3.01614 5.62996C2.86947 5.47465 2.74184 5.29807 2.58019 5.16101C2.4503 5.05093 1.89433 4.82856 1.22447 5.07399C0.00915261 5.5193 -0.0925107 8.99599 0.0488372 9.81201C0.140273 10.3397 0.299914 10.5242 0.566349 10.6086L0.660205 10.7801L0.62023 11.1765C0.59971 11.3797 0.713118 11.552 0.878373 11.5687C1.04366 11.5853 1.18927 11.4392 1.20972 11.236L1.24973 10.8396L1.34058 10.7323C1.76873 10.7943 2.19793 10.8456 2.62856 10.8814L2.73948 11.054L2.72728 11.4523C2.72106 11.6564 2.84621 11.8204 3.01221 11.8254C3.17824 11.8305 3.31329 11.6746 3.31946 11.4705L3.33172 11.0722L3.43638 10.9294C3.64422 10.9364 4.68973 10.4371 6.84767 10.8455C7.27252 10.926 7.70721 10.9786 8.13742 10.9794C8.22521 10.9795 8.313 10.9792 8.40082 10.9789L8.51029 11.1366L8.51242 11.5351C8.51348 11.7392 8.64448 11.8986 8.81054 11.8977C8.97666 11.8968 9.10601 11.7361 9.10488 11.5319L9.10282 11.1335L9.21484 10.9685C9.72886 10.9574 10.2427 10.9379 10.7559 10.9098C10.8458 10.9048 10.9358 10.8996 11.0257 10.8939C11.0286 10.898 11.0315 10.9019 11.0348 10.9057L11.1878 11.0772L11.2383 11.4724C11.2642 11.675 11.4136 11.8172 11.5783 11.7962C11.7431 11.7751 11.852 11.5999 11.8261 11.3974L11.7756 11.0021L11.8648 10.8286C12.4206 10.7744 12.9729 10.6945 13.5168 10.5659C13.5189 10.5679 13.5208 10.5701 13.523 10.5719L13.6981 10.7209L13.8022 11.1055C13.8555 11.3027 14.023 11.4232 14.1833 11.3797C14.3437 11.3363 14.4275 11.1479 14.3741 10.9508L14.2701 10.5661L14.3462 10.3493C14.3466 10.3483 14.3467 10.3472 14.347 10.3461ZM6.33083 9.32695C6.30309 9.35892 6.26295 9.37696 6.22123 9.37696C6.21523 9.37696 6.20923 9.37657 6.20323 9.37583C5.85756 9.33266 5.50404 9.28394 5.15249 9.23103C5.10023 9.22316 5.05638 9.18747 5.03799 9.13792C5.0196 9.08836 5.02963 9.03274 5.06412 8.9927L7.01818 6.72413C7.06061 6.67486 7.13066 6.65986 7.1895 6.68725C7.46936 6.81766 7.75409 6.9431 8.03572 7.06012C8.0787 7.07797 8.11051 7.11536 8.12125 7.16063C8.132 7.20589 8.12041 7.25361 8.09005 7.28888C7.43961 8.04479 6.89706 8.67483 6.33083 9.32695ZM8.32897 9.5106C8.30128 9.54241 8.26124 9.56051 8.21943 9.56051C8.21569 9.56051 8.21195 9.56035 8.20817 9.56006C7.85043 9.53231 7.4843 9.4985 7.11991 9.45962C7.06626 9.45388 7.02025 9.4189 7.00034 9.36876C6.98047 9.31863 6.99002 9.26158 7.02518 9.22067C7.5264 8.63712 8.09447 7.97571 8.6558 7.33343C8.69568 7.28775 8.75969 7.27174 8.81641 7.29313C9.12718 7.41051 9.428 7.51404 9.71044 7.60093C9.75729 7.61532 9.79371 7.65242 9.80727 7.6995C9.82082 7.7466 9.80972 7.79739 9.77771 7.83452L9.66521 7.96503C9.20606 8.49764 8.77237 9.00073 8.32897 9.5106ZM11.567 8.18442L10.2985 9.60339C10.2709 9.63423 10.2315 9.65182 10.1902 9.65182C10.1892 9.65182 10.1882 9.65182 10.1872 9.65178C9.92938 9.64646 9.52996 9.63497 9.0913 9.61052C9.03613 9.60742 8.98744 9.57329 8.96579 9.52244C8.94414 9.47156 8.95324 9.41284 8.98931 9.37093L9.84647 8.37413C10.0028 8.19217 10.1644 8.004 10.3252 7.8201C10.3608 7.77935 10.416 7.7618 10.4686 7.77454C10.8369 7.86366 11.1737 7.92031 11.4699 7.9429C11.525 7.94712 11.5729 7.98223 11.5935 8.03349C11.6142 8.08476 11.6038 8.14325 11.567 8.18442Z" fill="#252525"/>
</g>
<defs>
<clipPath id="clip0_5_5562">
<rect width="16" height="16" fill="white"/>
</clipPath>
</defs>
</svg>
