<svg width="15" height="16" viewBox="0 0 15 16" fill="none" xmlns="http://www.w3.org/2000/svg">
<path d="M0 15.5V13.8333H13.3333V15.5H0ZM3.33333 12.1667C2.41667 12.1667 1.63194 11.8403 0.979167 11.1875C0.326389 10.5347 0 9.75 0 8.83333V0.5H13.3333C13.7917 0.5 14.184 0.663194 14.5104 0.989583C14.8368 1.31597 15 1.70833 15 2.16667V4.66667C15 5.125 14.8368 5.51736 14.5104 5.84375C14.184 6.17014 13.7917 6.33333 13.3333 6.33333H11.6667V8.83333C11.6667 9.75 11.3403 10.5347 10.6875 11.1875C10.0347 11.8403 9.25 12.1667 8.33333 12.1667H3.33333ZM11.6667 4.66667H13.3333V2.16667H11.6667V4.66667Z" fill="#252525"/>
</svg>
