<svg width="14" height="18" viewBox="0 0 14 18" fill="none" xmlns="http://www.w3.org/2000/svg">
<path d="M6.66667 8.99999C7.125 8.99999 7.51736 8.8368 7.84375 8.51041C8.17014 8.18402 8.33333 7.79166 8.33333 7.33332C8.33333 6.87499 8.17014 6.48263 7.84375 6.15624C7.51736 5.82985 7.125 5.66666 6.66667 5.66666C6.20833 5.66666 5.81597 5.82985 5.48958 6.15624C5.16319 6.48263 5 6.87499 5 7.33332C5 7.79166 5.16319 8.18402 5.48958 8.51041C5.81597 8.8368 6.20833 8.99999 6.66667 8.99999ZM6.66667 17.3333C4.43056 15.4305 2.76042 13.6632 1.65625 12.0312C0.552083 10.3993 0 8.88888 0 7.49999C0 5.41666 0.670139 3.75693 2.01042 2.52082C3.35069 1.28471 4.90278 0.666656 6.66667 0.666656C8.43056 0.666656 9.98264 1.28471 11.3229 2.52082C12.6632 3.75693 13.3333 5.41666 13.3333 7.49999C13.3333 8.88888 12.7812 10.3993 11.6771 12.0312C10.5729 13.6632 8.90278 15.4305 6.66667 17.3333Z" fill="#252525"/>
</svg>
