<svg width="26" height="22" viewBox="0 0 26 22" fill="none" xmlns="http://www.w3.org/2000/svg">
<path d="M15.1667 21.5C13.7278 21.5 12.3813 21.2326 11.1271 20.6979C9.87292 20.1632 8.76944 19.4292 7.81667 18.4958L9.47917 16.8333C10.2181 17.5528 11.0736 18.1215 12.0458 18.5396C13.0181 18.9576 14.0583 19.1667 15.1667 19.1667C17.4222 19.1667 19.3472 18.3694 20.9417 16.775C22.5361 15.1806 23.3333 13.2556 23.3333 11C23.3333 8.74444 22.5361 6.81944 20.9417 5.225C19.3472 3.63056 17.4222 2.83333 15.1667 2.83333C12.9111 2.83333 10.9861 3.63056 9.39167 5.225C7.79722 6.81944 7 8.74444 7 11V11.2042L9.12917 9.075L10.7917 10.7083L5.83333 15.6667L0.875 10.7083L2.5375 9.075L4.66667 11.2333V11C4.66667 9.54167 4.94375 8.17569 5.49792 6.90208C6.05208 5.62847 6.80069 4.52014 7.74375 3.57708C8.68681 2.63403 9.79514 1.88542 11.0687 1.33125C12.3424 0.777083 13.7083 0.5 15.1667 0.5C16.625 0.5 17.991 0.777083 19.2646 1.33125C20.5382 1.88542 21.6465 2.63403 22.5896 3.57708C23.5326 4.52014 24.2812 5.62847 24.8354 6.90208C25.3896 8.17569 25.6667 9.54167 25.6667 11C25.6667 13.9167 24.6458 16.3958 22.6042 18.4375C20.5625 20.4792 18.0833 21.5 15.1667 21.5ZM12.8333 15.6667C12.5028 15.6667 12.2257 15.5549 12.0021 15.3313C11.7785 15.1076 11.6667 14.8306 11.6667 14.5V11C11.6667 10.6694 11.7785 10.3924 12.0021 10.1687C12.2257 9.94514 12.5028 9.83333 12.8333 9.83333V8.66667C12.8333 8.025 13.0618 7.47569 13.5188 7.01875C13.9757 6.56181 14.525 6.33333 15.1667 6.33333C15.8083 6.33333 16.3576 6.56181 16.8146 7.01875C17.2715 7.47569 17.5 8.025 17.5 8.66667V9.83333C17.8306 9.83333 18.1076 9.94514 18.3312 10.1687C18.5549 10.3924 18.6667 10.6694 18.6667 11V14.5C18.6667 14.8306 18.5549 15.1076 18.3312 15.3313C18.1076 15.5549 17.8306 15.6667 17.5 15.6667H12.8333ZM14 9.83333H16.3333V8.66667C16.3333 8.33611 16.2215 8.05903 15.9979 7.83542C15.7743 7.61181 15.4972 7.5 15.1667 7.5C14.8361 7.5 14.559 7.61181 14.3354 7.83542C14.1118 8.05903 14 8.33611 14 8.66667V9.83333Z" fill="#1C1B1F"/>
</svg>
