<svg width="17" height="14" viewBox="0 0 17 14" fill="none" xmlns="http://www.w3.org/2000/svg">
<path d="M1.66667 13.6666C1.20833 13.6666 0.815972 13.5035 0.489583 13.1771C0.163194 12.8507 0 12.4583 0 12V1.99998C0 1.54165 0.163194 1.14929 0.489583 0.822896C0.815972 0.496507 1.20833 0.333313 1.66667 0.333313H15C15.4583 0.333313 15.8507 0.496507 16.1771 0.822896C16.5035 1.14929 16.6667 1.54165 16.6667 1.99998V12C16.6667 12.4583 16.5035 12.8507 16.1771 13.1771C15.8507 13.5035 15.4583 13.6666 15 13.6666H1.66667ZM8.33333 7.83331L15 3.66665V1.99998L8.33333 6.16665L1.66667 1.99998V3.66665L8.33333 7.83331Z" fill="#252525"/>
</svg>
