<svg width="38" height="31" viewBox="0 0 38 31" fill="none" xmlns="http://www.w3.org/2000/svg">
<path d="M19.0003 12.0007L13.167 6.16732L19.0003 0.333984L24.8337 6.16732L19.0003 12.0007ZM0.666992 30.334V23.6673C0.666992 22.7229 0.993381 21.9312 1.64616 21.2923C2.29894 20.6534 3.08366 20.334 4.00033 20.334H9.45866C10.0142 20.334 10.542 20.4729 11.042 20.7507C11.542 21.0284 11.9448 21.4034 12.2503 21.8757C13.0559 22.959 14.0489 23.8062 15.2295 24.4173C16.41 25.0284 17.667 25.334 19.0003 25.334C20.3614 25.334 21.6323 25.0284 22.8128 24.4173C23.9934 23.8062 24.9725 22.959 25.7503 21.8757C26.1114 21.4034 26.535 21.0284 27.0212 20.7507C27.5073 20.4729 28.0142 20.334 28.542 20.334H34.0003C34.9448 20.334 35.7364 20.6534 36.3753 21.2923C37.0142 21.9312 37.3337 22.7229 37.3337 23.6673V30.334H25.667V26.5423C24.6948 27.2368 23.6462 27.7645 22.5212 28.1257C21.3962 28.4868 20.2225 28.6673 19.0003 28.6673C17.8059 28.6673 16.6392 28.4798 15.5003 28.1048C14.3614 27.7298 13.3059 27.1951 12.3337 26.5007V30.334H0.666992ZM5.66699 18.6673C4.2781 18.6673 3.09755 18.1812 2.12533 17.209C1.1531 16.2368 0.666992 15.0562 0.666992 13.6673C0.666992 12.2507 1.1531 11.0632 2.12533 10.1048C3.09755 9.14648 4.2781 8.66732 5.66699 8.66732C7.08366 8.66732 8.27116 9.14648 9.22949 10.1048C10.1878 11.0632 10.667 12.2507 10.667 13.6673C10.667 15.0562 10.1878 16.2368 9.22949 17.209C8.27116 18.1812 7.08366 18.6673 5.66699 18.6673ZM32.3337 18.6673C30.9448 18.6673 29.7642 18.1812 28.792 17.209C27.8198 16.2368 27.3337 15.0562 27.3337 13.6673C27.3337 12.2507 27.8198 11.0632 28.792 10.1048C29.7642 9.14648 30.9448 8.66732 32.3337 8.66732C33.7503 8.66732 34.9378 9.14648 35.8962 10.1048C36.8545 11.0632 37.3337 12.2507 37.3337 13.6673C37.3337 15.0562 36.8545 16.2368 35.8962 17.209C34.9378 18.1812 33.7503 18.6673 32.3337 18.6673Z" fill="white"/>
</svg>
