<svg width="16" height="16" viewBox="0 0 16 16" fill="none" xmlns="http://www.w3.org/2000/svg">
<mask id="mask0_5_5651" style="mask-type:alpha" maskUnits="userSpaceOnUse" x="0" y="0" width="16" height="16">
<rect width="16" height="16" fill="#D9D9D9"/>
</mask>
<g mask="url(#mask0_5_5651)">
<path d="M10.6667 9.33335C10.1111 9.33335 9.63889 9.13891 9.25 8.75002C8.86111 8.36113 8.66667 7.88891 8.66667 7.33335C8.66667 6.7778 8.86111 6.30558 9.25 5.91669C9.63889 5.5278 10.1111 5.33335 10.6667 5.33335C11.2222 5.33335 11.6944 5.5278 12.0833 5.91669C12.4722 6.30558 12.6667 6.7778 12.6667 7.33335C12.6667 7.88891 12.4722 8.36113 12.0833 8.75002C11.6944 9.13891 11.2222 9.33335 10.6667 9.33335ZM6.66667 13.3334V12.0667C6.66667 11.8334 6.72222 11.6111 6.83333 11.4C6.94444 11.1889 7.1 11.0222 7.3 10.9C7.8 10.6 8.33056 10.375 8.89167 10.225C9.45278 10.075 10.0444 10 10.6667 10C11.2889 10 11.8806 10.075 12.4417 10.225C13.0028 10.375 13.5333 10.6 14.0333 10.9C14.2333 11.0222 14.3889 11.1889 14.5 11.4C14.6111 11.6111 14.6667 11.8334 14.6667 12.0667V13.3334H6.66667ZM2 9.33335V8.00002H7.33333V9.33335H2ZM2 4.00002V2.66669H10V4.00002H2ZM7.4 6.66669H2V5.33335H8C7.84444 5.52224 7.71944 5.7278 7.625 5.95002C7.53056 6.17224 7.45556 6.41113 7.4 6.66669Z" fill="#1C1B1F"/>
</g>
</svg>
