<svg width="120" height="120" viewBox="0 0 120 120" fill="none" xmlns="http://www.w3.org/2000/svg">
<circle cx="60" cy="60" r="60" fill="#04163A"/>
<mask id="mask0_122_2157" style="mask-type:alpha" maskUnits="userSpaceOnUse" x="24" y="24" width="72" height="72">
<rect x="24" y="24" width="72" height="72" fill="#D9D9D9"/>
</mask>
<g mask="url(#mask0_122_2157)">
<path d="M60.002 59.9999C56.702 59.9999 53.877 58.8249 51.527 56.4749C49.177 54.1249 48.002 51.2999 48.002 47.9999C48.002 44.6999 49.177 41.8749 51.527 39.5249C53.877 37.1749 56.702 35.9999 60.002 35.9999C63.302 35.9999 66.1269 37.1749 68.477 39.5249C70.827 41.8749 72.0019 44.6999 72.0019 47.9999C72.0019 51.2999 70.827 54.1249 68.477 56.4749C66.1269 58.8249 63.302 59.9999 60.002 59.9999ZM36.002 83.9999V75.5999C36.002 73.8999 36.4395 72.3374 37.3145 70.9124C38.1895 69.4874 39.352 68.3999 40.802 67.6499C43.902 66.0999 47.052 64.9374 50.252 64.1624C53.452 63.3874 56.702 62.9999 60.002 62.9999C63.302 62.9999 66.552 63.3874 69.7519 64.1624C72.952 64.9374 76.102 66.0999 79.202 67.6499C80.652 68.3999 81.8144 69.4874 82.6894 70.9124C83.5644 72.3374 84.0019 73.8999 84.0019 75.5999V83.9999H36.002Z" fill="white"/>
</g>
</svg>
