<svg width="17" height="18" viewBox="0 0 17 18" fill="none" xmlns="http://www.w3.org/2000/svg">
<path d="M1.66667 17.3333C1.20833 17.3333 0.815972 17.1701 0.489583 16.8437C0.163194 16.5173 0 16.125 0 15.6666V2.33329C0 1.87496 0.163194 1.4826 0.489583 1.15621C0.815972 0.82982 1.20833 0.666626 1.66667 0.666626H15C15.4583 0.666626 15.8507 0.82982 16.1771 1.15621C16.5035 1.4826 16.6667 1.87496 16.6667 2.33329V15.6666C16.6667 16.125 16.5035 16.5173 16.1771 16.8437C15.8507 17.1701 15.4583 17.3333 15 17.3333H1.66667ZM1.66667 12.3333V15.6666H3.33333V14H2.5V12.3333H1.66667ZM1.66667 10.6666H2.5C2.5 10.4305 2.57986 10.2326 2.73958 10.0729C2.89931 9.91315 3.09722 9.83329 3.33333 9.83329V7.74996C3.33333 7.40274 3.45486 7.1076 3.69792 6.86454C3.94097 6.62149 4.23611 6.49996 4.58333 6.49996H6.25C6.59722 6.49996 6.89236 6.62149 7.13542 6.86454C7.37847 7.1076 7.5 7.40274 7.5 7.74996V9.83329C7.73611 9.83329 7.93403 9.91315 8.09375 10.0729C8.25347 10.2326 8.33333 10.4305 8.33333 10.6666H15V2.33329H1.66667V10.6666ZM5.41667 5.66663C5.06944 5.66663 4.77431 5.5451 4.53125 5.30204C4.28819 5.05899 4.16667 4.76385 4.16667 4.41663C4.16667 4.0694 4.28819 3.77426 4.53125 3.53121C4.77431 3.28815 5.06944 3.16663 5.41667 3.16663C5.76389 3.16663 6.05903 3.28815 6.30208 3.53121C6.54514 3.77426 6.66667 4.0694 6.66667 4.41663C6.66667 4.76385 6.54514 5.05899 6.30208 5.30204C6.05903 5.5451 5.76389 5.66663 5.41667 5.66663ZM5 15.6666H5.83333V14H5V15.6666ZM7.5 15.6666H15V12.3333H8.33333V14H7.5V15.6666ZM8.54167 7.33329C8.56944 7.15274 8.58681 7.01732 8.59375 6.92704C8.60069 6.83676 8.60417 6.74301 8.60417 6.64579C8.60417 6.49301 8.57292 6.34718 8.51042 6.20829C8.44792 6.0694 8.31944 5.8819 8.125 5.64579C7.91667 5.3819 7.76042 5.11801 7.65625 4.85413C7.55208 4.59024 7.5 4.3194 7.5 4.04163C7.5 3.93052 7.50694 3.81593 7.52083 3.69788L7.58333 3.16663H8.83333C8.80556 3.3194 8.78472 3.46176 8.77083 3.59371C8.75694 3.72565 8.75 3.87496 8.75 4.04163C8.75 4.1944 8.78125 4.34371 8.84375 4.48954C8.90625 4.63538 9.01389 4.79163 9.16667 4.95829C9.41667 5.26385 9.59722 5.55204 9.70833 5.82288C9.81944 6.09371 9.875 6.36801 9.875 6.64579C9.875 6.79857 9.86806 6.92357 9.85417 7.02079C9.84028 7.11801 9.81944 7.22218 9.79167 7.33329H8.54167ZM10.625 7.33329C10.6528 7.15274 10.6701 7.01732 10.6771 6.92704C10.684 6.83676 10.6875 6.74301 10.6875 6.64579C10.6875 6.49301 10.6562 6.34718 10.5938 6.20829C10.5312 6.0694 10.4028 5.8819 10.2083 5.64579C10 5.3819 9.84375 5.11801 9.73958 4.85413C9.63542 4.59024 9.58333 4.3194 9.58333 4.04163C9.58333 3.93052 9.59028 3.81593 9.60417 3.69788L9.66667 3.16663H10.9167C10.8889 3.3194 10.8681 3.46176 10.8542 3.59371C10.8403 3.72565 10.8333 3.87496 10.8333 4.04163C10.8333 4.1944 10.8646 4.34371 10.9271 4.48954C10.9896 4.63538 11.0972 4.79163 11.25 4.95829C11.5 5.26385 11.6806 5.55204 11.7917 5.82288C11.9028 6.09371 11.9583 6.36801 11.9583 6.64579C11.9583 6.79857 11.9514 6.92357 11.9375 7.02079C11.9236 7.11801 11.9028 7.22218 11.875 7.33329H10.625ZM12.75 7.33329C12.7778 7.15274 12.7951 7.01732 12.8021 6.92704C12.809 6.83676 12.8125 6.74301 12.8125 6.64579C12.8125 6.49301 12.7812 6.34718 12.7188 6.20829C12.6562 6.0694 12.5278 5.8819 12.3333 5.64579C12.125 5.3819 11.9688 5.11801 11.8646 4.85413C11.7604 4.59024 11.7083 4.3194 11.7083 4.04163C11.7083 3.93052 11.7153 3.81593 11.7292 3.69788L11.7917 3.16663H13.0417C13.0139 3.3194 12.9931 3.46176 12.9792 3.59371C12.9653 3.72565 12.9583 3.87496 12.9583 4.04163C12.9583 4.1944 12.9896 4.34371 13.0521 4.48954C13.1146 4.63538 13.2222 4.79163 13.375 4.95829C13.625 5.26385 13.8056 5.55204 13.9167 5.82288C14.0278 6.09371 14.0833 6.36801 14.0833 6.64579C14.0833 6.79857 14.0764 6.92357 14.0625 7.02079C14.0486 7.11801 14.0278 7.22218 14 7.33329H12.75Z" fill="#252525"/>
</svg>
