<svg width="16" height="16" viewBox="0 0 16 16" fill="none" xmlns="http://www.w3.org/2000/svg">
<mask id="mask0_5_5566" style="mask-type:alpha" maskUnits="userSpaceOnUse" x="0" y="0" width="16" height="16">
<rect width="16" height="16" fill="#D9D9D9"/>
</mask>
<g mask="url(#mask0_5_5566)">
<path d="M1.33398 14.6666C1.33398 13.4333 1.49787 12.3805 1.82565 11.5083C2.15343 10.6361 2.57287 9.91109 3.08398 9.33331C3.5951 8.75553 4.16732 8.30831 4.80065 7.99165C5.43398 7.67498 6.05621 7.45553 6.66732 7.33331V5.33331C5.1451 5.14442 3.87565 4.67498 2.85898 3.92498C1.84232 3.17498 1.33398 2.31109 1.33398 1.33331H14.6673C14.6673 2.31109 14.159 3.17498 13.1423 3.92498C12.1257 4.67498 10.8562 5.14442 9.33398 5.33331V7.33331C9.9451 7.45553 10.5673 7.67498 11.2007 7.99165C11.834 8.30831 12.4062 8.75553 12.9173 9.33331C13.4284 9.91109 13.8479 10.6361 14.1757 11.5083C14.5034 12.3805 14.6673 13.4333 14.6673 14.6666H10.6673V13.3333H13.2507C13.0507 11.6444 12.4201 10.4222 11.359 9.66665C10.2979 8.91109 9.17843 8.53331 8.00065 8.53331C6.82287 8.53331 5.70343 8.91109 4.64232 9.66665C3.58121 10.4222 2.95065 11.6444 2.75065 13.3333H5.33398V14.6666H1.33398ZM8.00065 14.6666C7.63398 14.6666 7.3201 14.5361 7.05898 14.275C6.79787 14.0139 6.66732 13.7 6.66732 13.3333C6.66732 13.1444 6.70343 12.9722 6.77565 12.8166C6.84787 12.6611 6.9451 12.5222 7.06732 12.4C7.33398 12.1333 7.78398 11.8528 8.41732 11.5583C9.05065 11.2639 9.80065 10.9666 10.6673 10.6666C10.3562 11.5333 10.0562 12.2833 9.76732 12.9166C9.47843 13.55 9.20065 14 8.93398 14.2666C8.81176 14.3889 8.67287 14.4861 8.51732 14.5583C8.36176 14.6305 8.18954 14.6666 8.00065 14.6666Z" fill="#252525"/>
</g>
</svg>
