<?xml version="1.0" encoding="utf-8"?>
<!-- Generator: Adobe Illustrator 27.6.1, SVG Export Plug-In . SVG Version: 6.00 Build 0)  -->
<svg version="1.1" id="Livello_1" xmlns="http://www.w3.org/2000/svg" xmlns:xlink="http://www.w3.org/1999/xlink" x="0px" y="0px"
	 viewBox="0 0 36 28" enable-background="new 0 0 36 28" xml:space="preserve">
<path fill-rule="evenodd" clip-rule="evenodd" fill="#FDFEFE" d="M13.98,0h0.13c0.63,0,1.25,0.02,1.88,0.12l0.12,0.02
	c2.21,0.34,4.46,1.2,6.22,2.59c0.06,0.05,0.12,0.09,0.18,0.14c0.55,0.42,1.06,0.88,1.56,1.37l0.07,0.07
	c0.16,0.16,0.31,0.32,0.45,0.49l0.06,0.07c1.67,1.97,2.77,4.34,3.19,6.89l0.02,0.13c0.11,0.7,0.14,1.39,0.14,2.09v0.13
	c0,0.63-0.02,1.25-0.12,1.88l-0.02,0.12c-0.4,2.66-1.58,5.22-3.4,7.21c-0.05,0.05-0.09,0.1-0.13,0.15
	c-0.17,0.19-0.34,0.37-0.52,0.55l-0.09,0.09c-0.17,0.17-0.34,0.33-0.53,0.49l-0.07,0.06c-1.97,1.67-4.34,2.77-6.89,3.19l-0.13,0.02
	c-0.7,0.11-1.39,0.14-2.1,0.14h-0.13c-0.62,0-1.23-0.02-1.84-0.12l-0.12-0.02c-1.32-0.2-2.59-0.58-3.8-1.14l-0.17-0.08
	c-1.51-0.69-2.85-1.72-4.02-2.89l-0.07-0.07c-0.15-0.16-0.3-0.32-0.45-0.49l-0.06-0.07c-0.64-0.75-1.18-1.56-1.66-2.42l-0.05-0.08
	c-0.75-1.35-1.24-2.87-1.48-4.39l-0.02-0.13C0.03,15.41,0,14.72,0,14.02v-0.13c0-0.63,0.02-1.25,0.12-1.88l0.02-0.12
	c0.4-2.66,1.58-5.22,3.4-7.21c0.05-0.05,0.09-0.1,0.13-0.15c0.17-0.19,0.34-0.37,0.52-0.55l0.09-0.09C4.44,3.72,4.62,3.56,4.8,3.4
	l0.07-0.06C5.62,2.7,6.43,2.16,7.29,1.68l0.08-0.05c1.35-0.75,2.87-1.24,4.39-1.48l0.13-0.02C12.59,0.03,13.28,0,13.98,0z
	 M13.59,6.16h0.09c1.3-0.01,2.38,0.23,3.36,1.13l0.08,0.07c0.82,0.78,1.32,1.94,1.36,3.06c0.02,0.76,0.02,1-0.02,1.23
	c-0.02,0.11-0.05,0.21-0.09,0.36l0,0l-0.02,0.08c-0.19,0.66-0.48,1.25-0.92,1.77l-0.08,0.1c-0.45,0.53-1.08,0.91-1.72,1.16
	l-0.08,0.03c-0.47,0.17-0.92,0.2-1.41,0.2c-0.1,0-0.19,0-0.29,0c-0.39,0-0.73-0.04-1.11-0.16l-0.14-0.04
	c-0.54-0.16-1.01-0.44-1.44-0.8l-0.05-0.05c-0.58-0.49-0.97-1.12-1.27-1.81l-0.05-0.12C9.35,11.3,9.4,9.93,9.84,8.86
	c0.25-0.58,0.6-1.06,1.05-1.5l0.05-0.05c0.35-0.37,0.79-0.61,1.25-0.82l0.12-0.05c0.15-0.06,0.3-0.1,0.46-0.14l0.09-0.02
	C13.1,6.2,13.34,6.16,13.59,6.16z M16.83,18.13l-0.08-0.07c-1.65-1.43-4.45-1.11-5.94,0.39c-0.75,0.77-1.3,1.82-1.3,2.91v0.1
	c0,0.12,0,0.23,0,0.35l2.41,0.01l1.18,0.01c1.79,0.01,3.58,0.02,5.37,0.02c0-0.07,0-0.14,0-0.21v-0.09c0-0.54-0.1-1.07-0.31-1.56
	l-0.04-0.09c-0.3-0.65-0.67-1.2-1.21-1.67L16.83,18.13z M34.75,0H36v28h-1.25V0z"/>
</svg>
