<svg width="16" height="16" viewBox="0 0 16 16" fill="none" xmlns="http://www.w3.org/2000/svg">
<path d="M0 7.17588C0.0670017 6.49246 0.207705 5.8459 0.422111 5.23618C0.636516 4.62647 0.931323 4.0536 1.30653 3.51759C1.77554 4 2.1675 4.55946 2.48241 5.19598C2.79732 5.8325 3.00168 6.49246 3.09548 7.17588H0ZM12.9045 7.17588C12.9983 6.49246 13.1993 5.83585 13.5075 5.20603C13.8157 4.57621 14.2111 4.0201 14.6935 3.53769C15.0687 4.0603 15.3635 4.62982 15.5779 5.24623C15.7923 5.86265 15.933 6.50586 16 7.17588H12.9045ZM1.30653 12.4623C0.931323 11.9397 0.636516 11.3735 0.422111 10.7638C0.207705 10.1541 0.0670017 9.50754 0 8.82412H3.09548C3.00168 9.50754 2.79732 10.1642 2.48241 10.794C2.1675 11.4238 1.77554 11.9799 1.30653 12.4623ZM14.6935 12.4623C14.2111 11.9799 13.8157 11.4238 13.5075 10.794C13.1993 10.1642 12.9983 9.50754 12.9045 8.82412H16C15.933 9.49414 15.7923 10.1374 15.5779 10.7538C15.3635 11.3702 15.0687 11.9397 14.6935 12.4623ZM4.72362 7.17588C4.61642 6.21106 4.35511 5.31993 3.9397 4.50251C3.52429 3.68509 2.98157 2.94807 2.31156 2.29146C2.95477 1.64824 3.68844 1.13233 4.51256 0.743719C5.33668 0.355109 6.22446 0.107203 7.17588 0V7.17588H4.72362ZM8.82412 7.17588V0C9.77555 0.107203 10.6633 0.355109 11.4874 0.743719C12.3116 1.13233 13.0452 1.64824 13.6884 2.29146C13.005 2.93467 12.459 3.66834 12.0503 4.49246C11.6415 5.31658 11.3836 6.21106 11.2764 7.17588H8.82412ZM7.17588 16C6.21106 15.8928 5.31993 15.6415 4.50251 15.2462C3.68509 14.8509 2.95477 14.3317 2.31156 13.6884C2.99497 13.0452 3.54104 12.3149 3.94975 11.4975C4.35846 10.6801 4.61642 9.78895 4.72362 8.82412H7.17588V16ZM8.82412 16V8.82412H11.2764C11.3836 9.78895 11.6415 10.6834 12.0503 11.5075C12.459 12.3317 13.005 13.0653 13.6884 13.7085C13.0452 14.3518 12.3116 14.8677 11.4874 15.2563C10.6633 15.6449 9.77555 15.8928 8.82412 16Z" fill="#252525"/>
</svg>
