<svg width="15" height="16" viewBox="0 0 15 16" fill="none" xmlns="http://www.w3.org/2000/svg">
<path d="M1.0332 13.8248L0 12.8098L2.97272 9.83705C3.34733 9.46244 3.60412 8.99418 3.74309 8.43226C3.88205 7.87034 3.95154 7.00934 3.95154 5.84926C3.95154 5.14837 4.10863 4.45957 4.42282 3.78286C4.73701 3.10614 5.18413 2.47776 5.76417 1.89772C6.86384 0.798056 8.0783 0.175719 9.40756 0.0307081C10.7368 -0.114302 11.8304 0.254266 12.6884 1.13641C13.5585 2.00648 13.921 3.10614 13.776 4.43541C13.631 5.76467 13.0147 6.97309 11.9271 8.06067C11.3471 8.64071 10.7187 9.08783 10.042 9.40202C9.36527 9.71621 8.67647 9.8733 7.97558 9.8733C6.80341 9.8733 5.94544 9.93976 5.40165 10.0727C4.85786 10.2056 4.39261 10.4654 4.00592 10.8521L1.0332 13.8248ZM6.01794 7.77065C6.5859 8.32652 7.35325 8.53195 8.31998 8.38694C9.28672 8.24193 10.1507 7.78878 10.912 7.02747C11.6854 6.25408 12.1477 5.38704 12.2987 4.42634C12.4498 3.46565 12.2413 2.7134 11.6734 2.16961C11.0933 1.58957 10.335 1.37206 9.3985 1.51707C8.46197 1.66208 7.60097 2.12128 6.8155 2.89467C6.05419 3.65597 5.59197 4.51697 5.42883 5.47767C5.2657 6.43836 5.46207 7.20269 6.01794 7.77065ZM11.6008 16C10.8033 16 10.1205 15.716 9.55257 15.1481C8.98462 14.5801 8.70064 13.8973 8.70064 13.0998C8.70064 12.3022 8.98462 11.6195 9.55257 11.0515C10.1205 10.4836 10.8033 10.1996 11.6008 10.1996C12.3984 10.1996 13.0812 10.4836 13.6491 11.0515C14.2171 11.6195 14.5011 12.3022 14.5011 13.0998C14.5011 13.8973 14.2171 14.5801 13.6491 15.1481C13.0812 15.716 12.3984 16 11.6008 16Z" fill="#252525"/>
</svg>
