<svg width="54" height="54" viewBox="0 0 54 54" fill="none" xmlns="http://www.w3.org/2000/svg">
<path d="M22.6002 47.8L23.4002 44.0667C23.5335 43.4889 23.8113 43.0112 24.2335 42.6334C24.6557 42.2556 25.1779 42.0223 25.8002 41.9334L34.0668 41.2667C34.6446 41.1778 35.1779 41.2889 35.6668 41.6C36.1557 41.9112 36.5113 42.3334 36.7335 42.8667L37.8002 45.4C39.5335 44.3778 41.0891 43.1445 42.4668 41.7C43.8446 40.2556 45.0002 38.6445 45.9335 36.8667L45.1335 36.4667C44.6446 36.1111 44.289 35.6778 44.0668 35.1667C43.8446 34.6556 43.8002 34.1111 43.9335 33.5334L45.8002 25.4C45.9335 24.8667 46.2113 24.4223 46.6335 24.0667C47.0557 23.7112 47.5335 23.4889 48.0668 23.4C47.8446 22.2889 47.5668 21.2112 47.2335 20.1667C46.9002 19.1223 46.4668 18.1112 45.9335 17.1334C45.5335 17.3556 45.1002 17.4556 44.6335 17.4334C44.1668 17.4111 43.7557 17.2667 43.4002 17L36.3335 12.7334C35.8446 12.4223 35.4891 12 35.2668 11.4667C35.0446 10.9334 35.0002 10.3778 35.1335 9.80004L35.6668 7.53337C34.2891 6.91115 32.8779 6.44448 31.4335 6.13337C29.989 5.82226 28.5113 5.66671 27.0002 5.66671C26.3779 5.66671 25.7335 5.70004 25.0668 5.76671C24.4002 5.83337 23.7557 5.93337 23.1335 6.06671L25.1335 10.6C25.3557 11.1334 25.4113 11.6889 25.3002 12.2667C25.1891 12.8445 24.9113 13.3112 24.4668 13.6667L18.2002 19.1334C17.7557 19.5334 17.2335 19.7556 16.6335 19.8C16.0335 19.8445 15.4891 19.7112 15.0002 19.4L8.86683 15.6667C7.84461 17.3556 7.05572 19.1667 6.50016 21.1C5.94461 23.0334 5.66683 25 5.66683 27C5.66683 27.7112 5.75572 28.8667 5.9335 30.4667L11.8002 29.9334C12.4224 29.8445 12.9891 29.9445 13.5002 30.2334C14.0113 30.5223 14.3779 30.9556 14.6002 31.5334L17.8002 39.1334C18.0224 39.6667 18.0779 40.2223 17.9668 40.8C17.8557 41.3778 17.5779 41.8445 17.1335 42.2L14.6002 44.3334C15.8002 45.2223 17.0779 45.9556 18.4335 46.5334C19.7891 47.1112 21.1779 47.5334 22.6002 47.8ZM27.4002 36.3334C26.8224 36.4223 26.2891 36.3111 25.8002 36C25.3113 35.6889 24.9557 35.2667 24.7335 34.7334L21.1335 26.4667C20.9113 25.9334 20.8779 25.3778 21.0335 24.8C21.1891 24.2223 21.4891 23.7556 21.9335 23.4L28.7335 17.6667C29.1335 17.2667 29.6224 17.0445 30.2002 17C30.7779 16.9556 31.3113 17.0889 31.8002 17.4L39.2668 21.8C39.7557 22.1112 40.1335 22.5334 40.4002 23.0667C40.6668 23.6 40.7335 24.1556 40.6002 24.7334L38.4668 33.4C38.3335 33.9778 38.0668 34.4556 37.6668 34.8334C37.2668 35.2112 36.7779 35.4445 36.2002 35.5334L27.4002 36.3334ZM27.0002 53.6667C23.3113 53.6667 19.8446 52.9667 16.6002 51.5667C13.3557 50.1667 10.5335 48.2667 8.1335 45.8667C5.7335 43.4667 3.8335 40.6445 2.4335 37.4C1.0335 34.1556 0.333496 30.6889 0.333496 27C0.333496 23.3111 1.0335 19.8445 2.4335 16.6C3.8335 13.3556 5.7335 10.5334 8.1335 8.13337C10.5335 5.73337 13.3557 3.83337 16.6002 2.43337C19.8446 1.03337 23.3113 0.333374 27.0002 0.333374C30.6891 0.333374 34.1557 1.03337 37.4002 2.43337C40.6446 3.83337 43.4668 5.73337 45.8668 8.13337C48.2668 10.5334 50.1668 13.3556 51.5668 16.6C52.9668 19.8445 53.6668 23.3111 53.6668 27C53.6668 30.6889 52.9668 34.1556 51.5668 37.4C50.1668 40.6445 48.2668 43.4667 45.8668 45.8667C43.4668 48.2667 40.6446 50.1667 37.4002 51.5667C34.1557 52.9667 30.6891 53.6667 27.0002 53.6667Z" fill="white"/>
</svg>
