<svg width="80" height="80" viewBox="0 0 80 80" fill="none" xmlns="http://www.w3.org/2000/svg">
<circle cx="40" cy="40" r="40" fill="#00A724"/>
<mask id="mask0_44_480" style="mask-type:alpha" maskUnits="userSpaceOnUse" x="16" y="16" width="48" height="48">
<rect x="16" y="16" width="48" height="48" fill="#FFFFFF"/>
</mask>
<g mask="url(#mask0_44_480)">
<mask id="mask1_44_480" style="mask-type:alpha" maskUnits="userSpaceOnUse" x="16" y="16" width="48" height="48">
<rect x="16" y="16" width="48" height="48" fill="#FFFFFF"/>
</mask>
<g mask="url(#mask1_44_480)">
<path d="M22 30V22L30 26L22 30ZM52 30V22L60 26L52 30ZM38 28V20L46 24L38 28ZM34 59.75C32.2667 59.5833 30.5667 59.3333 28.9 59C27.2333 58.6667 25.7417 58.2583 24.425 57.775C23.1083 57.2917 22.0417 56.7333 21.225 56.1C20.4083 55.4667 20 54.7667 20 54V36C20 35.1667 20.525 34.3917 21.575 33.675C22.625 32.9583 24.05 32.325 25.85 31.775C27.65 31.225 29.7667 30.7917 32.2 30.475C34.6333 30.1583 37.2333 30 40 30C42.7667 30 45.3667 30.1583 47.8 30.475C50.2333 30.7917 52.35 31.225 54.15 31.775C55.95 32.325 57.375 32.9583 58.425 33.675C59.475 34.3917 60 35.1667 60 36V54C60 54.7667 59.5917 55.4667 58.775 56.1C57.9583 56.7333 56.8917 57.2917 55.575 57.775C54.2583 58.2583 52.7667 58.6667 51.1 59C49.4333 59.3333 47.7333 59.5833 46 59.75V50H34V59.75ZM40 38C43.2333 38 46.025 37.8083 48.375 37.425C50.725 37.0417 52.6 36.6 54 36.1C54 35.9333 52.7333 35.5417 50.2 34.925C47.6667 34.3083 44.2667 34 40 34C35.7333 34 32.3333 34.3083 29.8 34.925C27.2667 35.5417 26 35.9333 26 36.1C27.4 36.6 29.275 37.0417 31.625 37.425C33.975 37.8083 36.7667 38 40 38Z" fill="white"/>
</g>
</g>
</svg>
